<mxfile>
    <diagram id="th4mBt4n41NtQCqUOg2y" name="Page-1">
        <mxGraphModel dx="2937" dy="819" grid="0" gridSize="14" guides="1" tooltips="1" connect="1" arrows="1" fold="1" page="1" pageScale="1" pageWidth="1169" pageHeight="1654" background="#EEEEEE" math="0" shadow="0">
            <root>
                <mxCell id="0"/>
                <mxCell id="1" parent="0"/>
                <mxCell id="2U0XybCjC4J0R3s4k6ed-1" value="Room" style="swimlane;fontStyle=1;align=center;verticalAlign=top;childLayout=stackLayout;horizontal=1;startSize=26;horizontalStack=0;resizeParent=1;resizeParentMax=0;resizeLast=0;collapsible=1;marginBottom=0;fillColor=#F5AB50;strokeColor=#909090;fontColor=#1A1A1A;rounded=1;" parent="1" vertex="1">
                    <mxGeometry x="100" y="530" width="160" height="230" as="geometry"/>
                </mxCell>
                <mxCell id="2U0XybCjC4J0R3s4k6ed-2" value="+ field: type" style="text;strokeColor=none;fillColor=none;align=left;verticalAlign=top;spacingLeft=4;spacingRight=4;overflow=hidden;rotatable=0;points=[[0,0.5],[1,0.5]];portConstraint=eastwest;fontColor=#1A1A1A;rounded=1;" parent="2U0XybCjC4J0R3s4k6ed-1" vertex="1">
                    <mxGeometry y="26" width="160" height="26" as="geometry"/>
                </mxCell>
                <mxCell id="2U0XybCjC4J0R3s4k6ed-3" value="" style="line;strokeWidth=1;fillColor=none;align=left;verticalAlign=middle;spacingTop=-1;spacingLeft=3;spacingRight=3;rotatable=0;labelPosition=right;points=[];portConstraint=eastwest;strokeColor=#909090;fontColor=#1A1A1A;rounded=1;labelBackgroundColor=#EEEEEE;" parent="2U0XybCjC4J0R3s4k6ed-1" vertex="1">
                    <mxGeometry y="52" width="160" height="8" as="geometry"/>
                </mxCell>
                <mxCell id="2U0XybCjC4J0R3s4k6ed-4" value="Room();&#10;setExits();&#10;shortDescription();&#10;longDescription();&#10;exitString();&#10;nextRoom();&#10;addItem();&#10;displayItem();&#10;numberOfItems();&#10;isItemInRoom();" style="text;strokeColor=none;fillColor=none;align=left;verticalAlign=top;spacingLeft=4;spacingRight=4;overflow=hidden;rotatable=0;points=[[0,0.5],[1,0.5]];portConstraint=eastwest;fontColor=#1A1A1A;rounded=1;" parent="2U0XybCjC4J0R3s4k6ed-1" vertex="1">
                    <mxGeometry y="60" width="160" height="170" as="geometry"/>
                </mxCell>
                <mxCell id="2U0XybCjC4J0R3s4k6ed-5" value="item" style="swimlane;fontStyle=1;align=center;verticalAlign=top;childLayout=stackLayout;horizontal=1;startSize=26;horizontalStack=0;resizeParent=1;resizeParentMax=0;resizeLast=0;collapsible=1;marginBottom=0;fillColor=#F5AB50;strokeColor=#909090;fontColor=#1A1A1A;rounded=1;" parent="1" vertex="1">
                    <mxGeometry x="425" y="530" width="160" height="230" as="geometry"/>
                </mxCell>
                <mxCell id="2U0XybCjC4J0R3s4k6ed-6" value="+ field: type" style="text;strokeColor=none;fillColor=none;align=left;verticalAlign=top;spacingLeft=4;spacingRight=4;overflow=hidden;rotatable=0;points=[[0,0.5],[1,0.5]];portConstraint=eastwest;fontColor=#1A1A1A;rounded=1;" parent="2U0XybCjC4J0R3s4k6ed-5" vertex="1">
                    <mxGeometry y="26" width="160" height="26" as="geometry"/>
                </mxCell>
                <mxCell id="2U0XybCjC4J0R3s4k6ed-7" value="" style="line;strokeWidth=1;fillColor=none;align=left;verticalAlign=middle;spacingTop=-1;spacingLeft=3;spacingRight=3;rotatable=0;labelPosition=right;points=[];portConstraint=eastwest;strokeColor=#909090;fontColor=#1A1A1A;rounded=1;labelBackgroundColor=#EEEEEE;" parent="2U0XybCjC4J0R3s4k6ed-5" vertex="1">
                    <mxGeometry y="52" width="160" height="8" as="geometry"/>
                </mxCell>
                <mxCell id="2U0XybCjC4J0R3s4k6ed-8" value="Item();&#10;Item();&#10;setWeight();&#10;setValue();&#10;getShortDescription();&#10;getLongDescription();&#10;" style="text;strokeColor=none;fillColor=none;align=left;verticalAlign=top;spacingLeft=4;spacingRight=4;overflow=hidden;rotatable=0;points=[[0,0.5],[1,0.5]];portConstraint=eastwest;fontColor=#1A1A1A;rounded=1;" parent="2U0XybCjC4J0R3s4k6ed-5" vertex="1">
                    <mxGeometry y="60" width="160" height="170" as="geometry"/>
                </mxCell>
                <mxCell id="2U0XybCjC4J0R3s4k6ed-9" value="Command" style="swimlane;fontStyle=1;align=center;verticalAlign=top;childLayout=stackLayout;horizontal=1;startSize=26;horizontalStack=0;resizeParent=1;resizeParentMax=0;resizeLast=0;collapsible=1;marginBottom=0;glass=0;fillColor=#F5AB50;strokeColor=#909090;fontColor=#1A1A1A;rounded=1;" parent="1" vertex="1">
                    <mxGeometry x="561" y="960" width="160" height="230" as="geometry"/>
                </mxCell>
                <mxCell id="2U0XybCjC4J0R3s4k6ed-10" value="+ field: type" style="text;strokeColor=none;fillColor=none;align=left;verticalAlign=top;spacingLeft=4;spacingRight=4;overflow=hidden;rotatable=0;points=[[0,0.5],[1,0.5]];portConstraint=eastwest;fontColor=#1A1A1A;rounded=1;" parent="2U0XybCjC4J0R3s4k6ed-9" vertex="1">
                    <mxGeometry y="26" width="160" height="26" as="geometry"/>
                </mxCell>
                <mxCell id="2U0XybCjC4J0R3s4k6ed-11" value="" style="line;strokeWidth=1;fillColor=none;align=left;verticalAlign=middle;spacingTop=-1;spacingLeft=3;spacingRight=3;rotatable=0;labelPosition=right;points=[];portConstraint=eastwest;strokeColor=#909090;fontColor=#1A1A1A;rounded=1;labelBackgroundColor=#EEEEEE;" parent="2U0XybCjC4J0R3s4k6ed-9" vertex="1">
                    <mxGeometry y="52" width="160" height="8" as="geometry"/>
                </mxCell>
                <mxCell id="2U0XybCjC4J0R3s4k6ed-12" value="Command();&#10;getCommandWord();&#10;getSecondWord();Â &#10;isUnkown();&#10;hasSecondWord();&#10;" style="text;strokeColor=none;fillColor=none;align=left;verticalAlign=top;spacingLeft=4;spacingRight=4;overflow=hidden;rotatable=0;points=[[0,0.5],[1,0.5]];portConstraint=eastwest;fontColor=#1A1A1A;rounded=1;" parent="2U0XybCjC4J0R3s4k6ed-9" vertex="1">
                    <mxGeometry y="60" width="160" height="170" as="geometry"/>
                </mxCell>
                <mxCell id="2U0XybCjC4J0R3s4k6ed-13" value="Character" style="swimlane;fontStyle=1;align=center;verticalAlign=top;childLayout=stackLayout;horizontal=1;startSize=26;horizontalStack=0;resizeParent=1;resizeParentMax=0;resizeLast=0;collapsible=1;marginBottom=0;glass=0;fillColor=#F5AB50;strokeColor=#909090;fontColor=#1A1A1A;rounded=1;sketch=0;shadow=0;" parent="1" vertex="1">
                    <mxGeometry x="700" y="530" width="160" height="230" as="geometry"/>
                </mxCell>
                <mxCell id="2U0XybCjC4J0R3s4k6ed-14" value="+ field: type" style="text;strokeColor=none;fillColor=none;align=left;verticalAlign=top;spacingLeft=4;spacingRight=4;overflow=hidden;rotatable=0;points=[[0,0.5],[1,0.5]];portConstraint=eastwest;fontColor=#1A1A1A;rounded=1;" parent="2U0XybCjC4J0R3s4k6ed-13" vertex="1">
                    <mxGeometry y="26" width="160" height="26" as="geometry"/>
                </mxCell>
                <mxCell id="2U0XybCjC4J0R3s4k6ed-15" value="" style="line;strokeWidth=1;fillColor=none;align=left;verticalAlign=middle;spacingTop=-1;spacingLeft=3;spacingRight=3;rotatable=0;labelPosition=right;points=[];portConstraint=eastwest;strokeColor=#909090;fontColor=#1A1A1A;rounded=1;labelBackgroundColor=#EEEEEE;" parent="2U0XybCjC4J0R3s4k6ed-13" vertex="1">
                    <mxGeometry y="52" width="160" height="8" as="geometry"/>
                </mxCell>
                <mxCell id="2U0XybCjC4J0R3s4k6ed-16" value="TO FILL&#10;" style="text;strokeColor=none;fillColor=none;align=left;verticalAlign=top;spacingLeft=4;spacingRight=4;overflow=hidden;rotatable=0;points=[[0,0.5],[1,0.5]];portConstraint=eastwest;fontColor=#1A1A1A;rounded=1;" parent="2U0XybCjC4J0R3s4k6ed-13" vertex="1">
                    <mxGeometry y="60" width="160" height="170" as="geometry"/>
                </mxCell>
                <mxCell id="2U0XybCjC4J0R3s4k6ed-17" value="Parser" style="swimlane;fontStyle=1;align=center;verticalAlign=top;childLayout=stackLayout;horizontal=1;startSize=26;horizontalStack=0;resizeParent=1;resizeParentMax=0;resizeLast=0;collapsible=1;marginBottom=0;glass=0;fillColor=#F5AB50;strokeColor=#909090;fontColor=#1A1A1A;rounded=1;" parent="1" vertex="1">
                    <mxGeometry x="340" y="960" width="160" height="230" as="geometry"/>
                </mxCell>
                <mxCell id="2U0XybCjC4J0R3s4k6ed-18" value="+ field: type" style="text;strokeColor=none;fillColor=none;align=left;verticalAlign=top;spacingLeft=4;spacingRight=4;overflow=hidden;rotatable=0;points=[[0,0.5],[1,0.5]];portConstraint=eastwest;fontColor=#1A1A1A;rounded=1;" parent="2U0XybCjC4J0R3s4k6ed-17" vertex="1">
                    <mxGeometry y="26" width="160" height="26" as="geometry"/>
                </mxCell>
                <mxCell id="2U0XybCjC4J0R3s4k6ed-19" value="" style="line;strokeWidth=1;fillColor=none;align=left;verticalAlign=middle;spacingTop=-1;spacingLeft=3;spacingRight=3;rotatable=0;labelPosition=right;points=[];portConstraint=eastwest;strokeColor=#909090;fontColor=#1A1A1A;rounded=1;labelBackgroundColor=#EEEEEE;" parent="2U0XybCjC4J0R3s4k6ed-17" vertex="1">
                    <mxGeometry y="52" width="160" height="8" as="geometry"/>
                </mxCell>
                <mxCell id="2U0XybCjC4J0R3s4k6ed-20" value="Parser();&#10;getCommand();&#10;showCommands();&#10;&#10;&#10;" style="text;strokeColor=none;fillColor=none;align=left;verticalAlign=top;spacingLeft=4;spacingRight=4;overflow=hidden;rotatable=0;points=[[0,0.5],[1,0.5]];portConstraint=eastwest;fontColor=#1A1A1A;rounded=1;" parent="2U0XybCjC4J0R3s4k6ed-17" vertex="1">
                    <mxGeometry y="60" width="160" height="170" as="geometry"/>
                </mxCell>
                <mxCell id="2U0XybCjC4J0R3s4k6ed-21" value="CommandWords" style="swimlane;fontStyle=1;align=center;verticalAlign=top;childLayout=stackLayout;horizontal=1;startSize=26;horizontalStack=0;resizeParent=1;resizeParentMax=0;resizeLast=0;collapsible=1;marginBottom=0;glass=0;fillColor=#F5AB50;strokeColor=#909090;fontColor=#1A1A1A;rounded=1;" parent="1" vertex="1">
                    <mxGeometry x="767" y="957" width="160" height="230" as="geometry"/>
                </mxCell>
                <mxCell id="2U0XybCjC4J0R3s4k6ed-22" value="vector&lt;string&gt;" style="text;strokeColor=none;fillColor=none;align=left;verticalAlign=top;spacingLeft=4;spacingRight=4;overflow=hidden;rotatable=0;points=[[0,0.5],[1,0.5]];portConstraint=eastwest;fontColor=#1A1A1A;rounded=1;" parent="2U0XybCjC4J0R3s4k6ed-21" vertex="1">
                    <mxGeometry y="26" width="160" height="26" as="geometry"/>
                </mxCell>
                <mxCell id="2U0XybCjC4J0R3s4k6ed-23" value="" style="line;strokeWidth=1;fillColor=none;align=left;verticalAlign=middle;spacingTop=-1;spacingLeft=3;spacingRight=3;rotatable=0;labelPosition=right;points=[];portConstraint=eastwest;strokeColor=#909090;fontColor=#1A1A1A;rounded=1;labelBackgroundColor=#EEEEEE;" parent="2U0XybCjC4J0R3s4k6ed-21" vertex="1">
                    <mxGeometry y="52" width="160" height="8" as="geometry"/>
                </mxCell>
                <mxCell id="2U0XybCjC4J0R3s4k6ed-24" value="CommandWords();&#10;isCommand();&#10;showAll();&#10;" style="text;strokeColor=none;fillColor=none;align=left;verticalAlign=top;spacingLeft=4;spacingRight=4;overflow=hidden;rotatable=0;points=[[0,0.5],[1,0.5]];portConstraint=eastwest;fontColor=#1A1A1A;rounded=1;" parent="2U0XybCjC4J0R3s4k6ed-21" vertex="1">
                    <mxGeometry y="60" width="160" height="170" as="geometry"/>
                </mxCell>
                <mxCell id="2U0XybCjC4J0R3s4k6ed-25" value="ZorkUL" style="swimlane;fontStyle=1;align=center;verticalAlign=top;childLayout=stackLayout;horizontal=1;startSize=26;horizontalStack=0;resizeParent=1;resizeParentMax=0;resizeLast=0;collapsible=1;marginBottom=0;fillColor=#F5AB50;strokeColor=#909090;fontColor=#1A1A1A;rounded=1;" parent="1" vertex="1">
                    <mxGeometry x="100" y="960" width="160" height="230" as="geometry"/>
                </mxCell>
                <mxCell id="2U0XybCjC4J0R3s4k6ed-26" value="+ field: type" style="text;strokeColor=none;fillColor=none;align=left;verticalAlign=top;spacingLeft=4;spacingRight=4;overflow=hidden;rotatable=0;points=[[0,0.5],[1,0.5]];portConstraint=eastwest;fontColor=#1A1A1A;rounded=1;" parent="2U0XybCjC4J0R3s4k6ed-25" vertex="1">
                    <mxGeometry y="26" width="160" height="26" as="geometry"/>
                </mxCell>
                <mxCell id="2U0XybCjC4J0R3s4k6ed-27" value="" style="line;strokeWidth=1;fillColor=none;align=left;verticalAlign=middle;spacingTop=-1;spacingLeft=3;spacingRight=3;rotatable=0;labelPosition=right;points=[];portConstraint=eastwest;strokeColor=#909090;fontColor=#1A1A1A;rounded=1;labelBackgroundColor=#EEEEEE;" parent="2U0XybCjC4J0R3s4k6ed-25" vertex="1">
                    <mxGeometry y="52" width="160" height="8" as="geometry"/>
                </mxCell>
                <mxCell id="2U0XybCjC4J0R3s4k6ed-28" value="main();&#10;ZorkUL();&#10;createRooms();&#10;play();&#10;printWelcome();&#10;processCommand();&#10;printHelp();&#10;goRoom();&#10;go();" style="text;strokeColor=none;fillColor=none;align=left;verticalAlign=top;spacingLeft=4;spacingRight=4;overflow=hidden;rotatable=0;points=[[0,0.5],[1,0.5]];portConstraint=eastwest;fontColor=#1A1A1A;rounded=1;" parent="2U0XybCjC4J0R3s4k6ed-25" vertex="1">
                    <mxGeometry y="60" width="160" height="170" as="geometry"/>
                </mxCell>
                <mxCell id="2U0XybCjC4J0R3s4k6ed-29" value="" style="endArrow=diamondThin;endFill=1;endSize=24;html=1;entryX=1;entryY=0.5;entryDx=0;entryDy=0;exitX=0;exitY=0.5;exitDx=0;exitDy=0;strokeColor=#182E3E;fontColor=#1A1A1A;labelBackgroundColor=#EEEEEE;" parent="1" source="2U0XybCjC4J0R3s4k6ed-18" target="2U0XybCjC4J0R3s4k6ed-26" edge="1">
                    <mxGeometry width="160" relative="1" as="geometry">
                        <mxPoint x="340" y="800" as="sourcePoint"/>
                        <mxPoint x="500" y="800" as="targetPoint"/>
                    </mxGeometry>
                </mxCell>
                <mxCell id="2U0XybCjC4J0R3s4k6ed-30" value="" style="endArrow=diamondThin;endFill=0;endSize=24;html=1;entryX=0.5;entryY=0;entryDx=0;entryDy=0;exitX=0.5;exitY=1;exitDx=0;exitDy=0;exitPerimeter=0;strokeColor=#182E3E;fontColor=#1A1A1A;labelBackgroundColor=#EEEEEE;" parent="1" source="2U0XybCjC4J0R3s4k6ed-4" target="2U0XybCjC4J0R3s4k6ed-25" edge="1">
                    <mxGeometry width="160" relative="1" as="geometry">
                        <mxPoint x="110" y="740" as="sourcePoint"/>
                        <mxPoint x="270" y="740" as="targetPoint"/>
                    </mxGeometry>
                </mxCell>
                <mxCell id="2U0XybCjC4J0R3s4k6ed-31" value="" style="endArrow=diamondThin;endFill=1;endSize=24;html=1;entryX=1;entryY=0.5;entryDx=0;entryDy=0;exitX=0;exitY=0.5;exitDx=0;exitDy=0;strokeColor=#182E3E;fontColor=#1A1A1A;labelBackgroundColor=#EEEEEE;" parent="1" source="2U0XybCjC4J0R3s4k6ed-6" target="2U0XybCjC4J0R3s4k6ed-2" edge="1">
                    <mxGeometry width="160" relative="1" as="geometry">
                        <mxPoint x="390" y="770" as="sourcePoint"/>
                        <mxPoint x="550" y="770" as="targetPoint"/>
                    </mxGeometry>
                </mxCell>
            </root>
        </mxGraphModel>
    </diagram>
</mxfile>